<svg width="1200" height="400" viewBox="0 0 1200 400" fill="none" xmlns="http://www.w3.org/2000/svg">
  <title>XXD Panel 039</title>
  <desc>Read the source&#x27;s spirit, emotional relation, and implication, then choose only one posture, contour, relation, action, or symbolic detail to carry the whole photograph through layered Chinese silk thread, varied stitch direction, luminous colour, unfinished edges, and Eastern active whitespace.</desc>
  <defs><clipPath id="f"><rect width="1200" height="400" rx="30"/></clipPath><filter id="s" x="-30%" y="-30%" width="160%" height="160%"><feGaussianBlur stdDeviation="12"/></filter></defs>
  <g clip-path="url(#f)">
    <rect width="1200" height="400" fill="#F8F7F1"/><circle cx="1080" cy="38" r="180" fill="#FFFFFF" fill-opacity=".34"/><circle cx="760" cy="390" r="200" fill="#2A7B80" fill-opacity=".1"/>
    <g transform="translate(58 42)"><rect width="224" height="34" rx="8" fill="#172D31"/><text x="16" y="22" fill="white" font-family="Arial,sans-serif" font-size="13" font-weight="900" letter-spacing="2">🦁 XXD / IMAGE SKILL</text><text y="112" fill="#172D31" font-family="Arial,sans-serif" font-size="68" font-weight="900" letter-spacing="-3">PANEL <tspan fill="#D83D55">039</tspan></text><text x="2" y="151" fill="#2A7B80" font-family="Arial,sans-serif" font-size="13" font-weight="900" letter-spacing=".32">ONE IMAGE · ONE ESSENCE · SILK DIRECTION · CLEAN GROUND · EASTERN SILENCE</text><text x="2" y="198" fill="#172D31" font-family="sans-serif" font-size="18" font-weight="800">一图一核，把最值得留下的东西绣进一片灵动丝光</text><text x="2" y="230" fill="#3B555A" font-family="sans-serif" font-size="14" font-weight="700">一枚の写真の核を、一つの生きた中国刺繍へ</text><text x="2" y="260" fill="#3B555A" font-family="sans-serif" font-size="14" font-weight="700">사진 한 장의 핵을 하나의 살아 있는 중국 자수로</text><text x="2" y="291" fill="#3B555A" font-family="Arial,sans-serif" font-size="13" font-weight="700">حفظ جوهر صورة واحدة في حقل حي من التطريز الصيني الحريري</text></g>
    <g transform="translate(58 334)"><rect width="105" height="34" rx="8" fill="#172D31"/><text x="52.5" y="22" text-anchor="middle" fill="white" font-family="Arial,sans-serif" font-size="11" font-weight="900">SOURCE-BOUND</text><rect x="117" width="88" height="34" rx="8" fill="#D83D55"/><text x="161" y="22" text-anchor="middle" fill="white" font-family="Arial,sans-serif" font-size="11" font-weight="900">4 MODES</text><rect x="217" width="132" height="34" rx="8" fill="#2A7B80"/><text x="283" y="22" text-anchor="middle" fill="white" font-family="Arial,sans-serif" font-size="11" font-weight="900">WALLPAPER PACK</text></g>
    <g transform="translate(792 39)"><ellipse cx="170" cy="307" rx="155" ry="18" fill="#23383D" fill-opacity=".1" filter="url(#s)"/><path d="M82 249C112 199 124 146 145 77C171 126 203 163 249 188C205 204 173 236 154 277C136 257 113 247 82 249Z" fill="none" stroke="#D83D55" stroke-width="17" stroke-linecap="round" stroke-linejoin="round"/><path d="M145 77C183 61 217 74 239 101M145 77C116 57 82 66 59 92M154 277C181 287 211 279 232 260" stroke="#2A7B80" stroke-width="5" stroke-linecap="round"/><path d="M104 208L177 104M119 229L198 135M137 249L221 171" stroke="#D5A62B" stroke-width="4" stroke-linecap="round"/><path d="M239 101C263 112 276 135 276 157" stroke="#253D42" stroke-width="2" stroke-dasharray="4 7"/><circle cx="276" cy="157" r="5" fill="#253D42"/><path d="M58 92C38 110 28 133 29 159" stroke="#253D42" stroke-width="2" stroke-dasharray="3 8"/></g>
  </g>
</svg>
